<?xml version="1.0" standalone="no"?><!DOCTYPE svg PUBLIC "-//W3C//DTD SVG 1.1//EN" "http://www.w3.org/Graphics/SVG/1.1/DTD/svg11.dtd"><svg t="1680147389615" class="icon" viewBox="0 0 1024 1024" version="1.1" xmlns="http://www.w3.org/2000/svg" p-id="1535" xmlns:xlink="http://www.w3.org/1999/xlink" width="200" height="200"><path d="M310.976 742.4l-233.92 25.6 136.64-317.952-140.992-192.512 343.168-39.168L509.312 3.84l204.8 278.016 234.88-25.6-137.92 315.904 140.224 191.232-341.376 38.912-94.72 217.6L310.976 742.4z m98.752-21.504a143.36 143.36 0 0 1-28.608 10.752l-8.96 2.56 132.544 179.2 47.104-108.288h-8.704a168.384 168.384 0 0 1-115.456-68.352l-13.312-17.92-4.608 2.048z m-46.08-163.072l106.752 147.712a116.48 116.48 0 0 0 92.928 47.872c4.224 0.256 8.512 0.256 12.8 0l278.72-31.744-112.384-152.32a117.76 117.76 0 0 0-18.944-20.224l-6.4-5.376-79.616 179.2L499.584 540.16l-135.872 17.664z m4.928-179.2c-41.6 4.48-77.568 30.976-94.208 69.376l-113.152 257.28 185.856-20.992a117.76 117.76 0 0 0 25.6-6.4l7.936-2.816L265.6 516.096 493.696 486.4l53.76-128-178.88 20.224z m175.296 130.56l83.968 111.36 51.2-115.712 22.464-51.2a116.992 116.992 0 0 0-12.544-116.48L521.088 109.568 446.336 281.6c-3.648 8.192-6.4 16.768-8.192 25.6l-1.28 8.448 194.304-20.48-87.296 214.016z m204.736-176.64l3.328 7.936c17.92 43.264 17.408 91.968-1.28 134.912l-9.216 20.48 4.608 3.072c8.448 5.696 16.32 12.16 23.552 19.2l6.656 6.656L865.088 320l-116.48 12.544z m-578.944-32.512L240.64 396.8l5.12-6.912a169.408 169.408 0 0 1 115.712-65.024l22.272-2.56v-5.376c0.576-11.264 2.432-22.4 5.568-33.28l2.56-9.216-222.08 25.6z" p-id="1536"></path><path d="M462.464 1024A508.544 508.544 0 0 1 96 811.52l59.328-6.656c9.728 11.968 20.096 23.424 30.976 34.304a455.296 455.296 0 0 0 233.152 126.464l43.008 58.368zM586.368 968.96a455.552 455.552 0 0 0 270.272-149.504l71.872-8.192A508.032 508.032 0 0 1 563.328 1024l23.04-55.04zM943.104 676.096a468.352 468.352 0 0 0 6.4-310.272l28.928-66.56A512.128 512.128 0 0 1 1024 512a508.032 508.032 0 0 1-45.568 212.224l-35.328-48.128zM46.08 724.992a517.76 517.76 0 0 1 0-427.008l35.328 48.128a470.144 470.144 0 0 0-7.168 312.576l-28.16 66.304zM98.048 209.408A508.8 508.8 0 0 1 462.208 0L438.4 55.04a454.784 454.784 0 0 0-252.096 129.792l-15.616 16.384-72.64 8.192zM868.928 219.136A456.832 456.832 0 0 0 604.8 58.368L563.328 0a508.544 508.544 0 0 1 364.928 212.48l-59.328 6.656z" p-id="1537"></path></svg>