<?xml version="1.0" standalone="no"?><!DOCTYPE svg PUBLIC "-//W3C//DTD SVG 1.1//EN" "http://www.w3.org/Graphics/SVG/1.1/DTD/svg11.dtd"><svg t="1679642312512" class="icon" viewBox="0 0 1024 1024" version="1.1" xmlns="http://www.w3.org/2000/svg" p-id="2508" xmlns:xlink="http://www.w3.org/1999/xlink" width="200" height="200"><path d="M1023.641088 497.433351c-201.779099 231.603084-484.044558 391.193404-803.199598 435.378983A509.516545 509.516545 0 0 0 511.999744 1023.999488c282.777459 0 511.999744-229.222285 511.999744-511.999744 0-4.889598-0.2304-9.727995-0.3584-14.566393M344.959828 441.778979c14.028793 0 25.395187 12.083194 25.395187 27.007987v293.887853a1259.69857 1259.69857 0 0 0 61.363169-14.847993c-0.0768-0.7424-0.256-1.433599-0.256-2.175999V368.870216a25.599987 25.599987 0 0 1 25.625587-25.599988h109.823946a25.599987 25.599987 0 0 1 25.599987 25.599988v324.300637a1315.839342 1315.839342 0 0 0 59.57117-26.495986V255.846272c0-15.513592 11.443194-28.057586 25.599987-28.057586h109.823945c14.131193 0 25.599987 12.543994 25.599987 28.057586v319.69264a1309.183345 1309.183345 0 0 0 200.9599-164.121518C967.321116 176.819112 760.31962 0 511.999744 0 229.222285 0 0 229.222285 0 511.999744c0 103.475148 30.771185 199.7055 83.558358 280.21746 3.148798 0.0256 6.271997 0.1536 9.395196 0.1536 39.21918 0 78.028761-1.843199 116.377541-5.247998V468.786966c0-14.924793 11.366394-27.007986 25.395188-27.007987h110.233545z" p-id="2509"></path></svg>